<svg xmlns="http://www.w3.org/2000/svg" viewBox="0 0 272.52 265.73"><defs><style>.cls-1{fill:#0061aa;}.cls-2{fill:#7a7f81;}</style></defs><g id="Layer_2" data-name="Layer 2"><g id="Layer_1-2" data-name="Layer 1"><path class="cls-1" d="M2.29,142.4l6.45-.6L9,144.26l-6.44.6.17,1.76-2,.19-.56-6,2-.19Z"/><path class="cls-1" d="M6.1,135.46l.06-2.32a2.7,2.7,0,0,1,1.63,1,3.61,3.61,0,0,1,.75,2.25A3.52,3.52,0,0,1,7.72,139,3.1,3.1,0,0,1,5.46,140a3.43,3.43,0,1,1-.21-6.85h.36l.16,4.24a1.6,1.6,0,0,0,.88-.24.85.85,0,0,0,.26-.77A.87.87,0,0,0,6.1,135.46Zm-1.64.24a1.11,1.11,0,0,0-.85.29.9.9,0,0,0-.2.63c0,.59.4.87,1.12.84Z"/><path class="cls-1" d="M5.81,127.92,6,125.8a2.86,2.86,0,0,1,1.79,1,3,3,0,0,1,.66,2.09,3.12,3.12,0,0,1-3.32,3.2,3.32,3.32,0,0,1-2.39-.95,3.07,3.07,0,0,1-.89-2.36,3,3,0,0,1,.75-2.06,2.76,2.76,0,0,1,1.82-.89L4.59,128c-.67.08-1,.32-1,.74a.61.61,0,0,0,.36.59,3,3,0,0,0,1.26.21,2.75,2.75,0,0,0,1.16-.16.64.64,0,0,0,.38-.63C6.74,128.28,6.43,128,5.81,127.92Z"/><path class="cls-1" d="M9,118.38l-.21,2.48L5,120.54a1.62,1.62,0,0,0-.73.06A.47.47,0,0,0,4,121a.66.66,0,0,0,.11.46.58.58,0,0,0,.3.25c.11,0,.33,0,.67.08l3.58.3-.21,2.48L0,123.88l.21-2.47,2.9.24a2.15,2.15,0,0,1-.73-1.83,2.25,2.25,0,0,1,.27-.94,1.59,1.59,0,0,1,.54-.6,1.67,1.67,0,0,1,.6-.25,4.9,4.9,0,0,1,1.09,0Z"/><path class="cls-1" d="M10.08,110.66l-.36,2.46-4-.59a1,1,0,0,0-.64.06.53.53,0,0,0-.19.36c-.07.45.21.72.83.81l3.77.56-.36,2.46-6.27-.93.33-2.28.89.13a1.84,1.84,0,0,1-.75-2,2.42,2.42,0,0,1,.43-1.12,1.7,1.7,0,0,1,.78-.58,3.78,3.78,0,0,1,1.48,0Z"/><path class="cls-1" d="M2.28,104.91l1.93.38-.48,2.44-1.93-.38Zm2.39.47,6.22,1.23-.48,2.44-6.22-1.23Z"/><path class="cls-1" d="M9.63,100.72l.69-2A2.89,2.89,0,0,1,11.85,100a3,3,0,0,1,.18,2.19,3.12,3.12,0,0,1-3.94,2.39A3.33,3.33,0,0,1,6,103.17a3.39,3.39,0,0,1,.83-4.35,2.75,2.75,0,0,1,2-.46l-.35,2.15c-.67-.07-1,.1-1.15.5a.6.6,0,0,0,.21.66,3.39,3.39,0,0,0,1.19.48,2.8,2.8,0,0,0,1.17.09.64.64,0,0,0,.51-.53C10.47,101.28,10.22,101,9.63,100.72Z"/><path class="cls-1" d="M14.81,92.14l-.7,2.26a3.55,3.55,0,0,1-.87-.18,2.29,2.29,0,0,1,.36,2.25,2.25,2.25,0,0,1-1,1.43,1.83,1.83,0,0,1-1.42.15,1.91,1.91,0,0,1-1.29-1.36,6.81,6.81,0,0,1,.25-3.31l-.13,0a.68.68,0,0,0-.59,0,1.08,1.08,0,0,0-.3.49c-.16.55,0,.93.38,1.13l-.88,2.1c-1.16-.7-1.47-1.95-.91-3.75A6.21,6.21,0,0,1,8.23,92,2.38,2.38,0,0,1,9,91.19a1.59,1.59,0,0,1,.8-.27,4.93,4.93,0,0,1,1.37.28l2.42.76A3.59,3.59,0,0,0,14.81,92.14Zm-3.6,1.58c-.21,1,0,1.65.5,1.82.37.11.61,0,.73-.43a1,1,0,0,0,0-.72c-.09-.22-.4-.42-.92-.58Z"/><path class="cls-1" d="M8.16,85.59l8,2.92-.84,2.3-8-2.92Z"/><path class="cls-1" d="M20.68,77.9l-1,2.16a3.82,3.82,0,0,1-.84-.29,2.31,2.31,0,0,1,.08,2.28,2.25,2.25,0,0,1-1.22,1.29,1.86,1.86,0,0,1-1.43,0,1.88,1.88,0,0,1-1.1-1.51,6.86,6.86,0,0,1,.66-3.25l-.13-.06a.62.62,0,0,0-.58-.06.94.94,0,0,0-.36.45c-.23.52-.16.91.24,1.16l-1.14,2q-1.61-1.26-.44-3.84A6.23,6.23,0,0,1,14.16,77a2.35,2.35,0,0,1,.86-.72,1.67,1.67,0,0,1,.83-.18,5.56,5.56,0,0,1,1.32.46l2.3,1A3.39,3.39,0,0,0,20.68,77.9ZM16.91,79q-.51,1.52.27,1.86a.53.53,0,0,0,.78-.33,1,1,0,0,0,.06-.72c-.06-.23-.34-.46-.83-.69Z"/><path class="cls-1" d="M24.22,71.18l-1.17,2.19L19.53,71.5a.92.92,0,0,0-.63-.17.55.55,0,0,0-.3.28c-.21.4,0,.75.52,1l3.36,1.8-1.17,2.19-5.6-3,1.09-2,.79.42A1.85,1.85,0,0,1,17.54,70a2.45,2.45,0,0,1,.78-.91,1.67,1.67,0,0,1,.93-.28,3.66,3.66,0,0,1,1.39.51Z"/><path class="cls-1" d="M28.29,64.48l-1.22,2L26.35,66a1.77,1.77,0,0,1-.07,2,2.16,2.16,0,0,1-1.66,1.07,4,4,0,0,1-2.48-.73,3.88,3.88,0,0,1-1.7-1.86,2.15,2.15,0,0,1,.19-2,2,2,0,0,1,1.42-1l-2.28-1.41L21.05,60Zm-4.75-.06c-.49-.3-.85-.25-1.1.15a.64.64,0,0,0,.12.83,5,5,0,0,0,1.05.83c.88.54,1.45.59,1.73.14a.68.68,0,0,0,.06-.56,1.13,1.13,0,0,0-.52-.56Z"/><path class="cls-1" d="M28.9,49.14l5.19,7.24-1.6,2.13L24,55.58l1.66-2.2L30.2,55.1c.28.1.54.19.8.3l-3.4-4.54Z"/><path class="cls-1" d="M38.18,51.58a3.31,3.31,0,0,1-5.89-1.81,3.86,3.86,0,0,1,3.27-3.83A3.39,3.39,0,0,1,39.13,49,3.46,3.46,0,0,1,38.18,51.58Zm-1.12-1a.66.66,0,0,0,0-.93,6.2,6.2,0,0,0-.87-.91,3.24,3.24,0,0,0-1.09-.7.7.7,0,0,0-.82,1,3.16,3.16,0,0,0,.88,1,3.37,3.37,0,0,0,1.22.78A.66.66,0,0,0,37.06,50.57Z"/><path class="cls-1" d="M42.08,43.39,43.69,42a2.85,2.85,0,0,1,.64,1.93,3,3,0,0,1-.94,2,3.14,3.14,0,0,1-4.61.08,3.34,3.34,0,0,1-1.1-2.32,3.1,3.1,0,0,1,1-2.34,3,3,0,0,1,2-1,2.7,2.7,0,0,1,1.94.6L41.15,42.6c-.55-.4-1-.45-1.25-.15a.6.6,0,0,0-.15.67,3,3,0,0,0,.79,1,2.82,2.82,0,0,0,1,.67.66.66,0,0,0,.71-.2C42.51,44.29,42.47,43.88,42.08,43.39Z"/><path class="cls-1" d="M50.9,38.58l-1.75,1.59a4.38,4.38,0,0,1-.66-.59,2.26,2.26,0,0,1-.82,2.12,2.22,2.22,0,0,1-1.63.71,1.82,1.82,0,0,1-1.29-.59A1.88,1.88,0,0,1,44.32,40a6.91,6.91,0,0,1,1.89-2.73l-.09-.11c-.19-.2-.36-.3-.52-.28a1,1,0,0,0-.5.28c-.43.38-.51.77-.24,1.15L43,39.69q-1-1.8,1.1-3.7a5.94,5.94,0,0,1,1.14-.84,2.47,2.47,0,0,1,1.08-.33,1.64,1.64,0,0,1,.83.17,4.87,4.87,0,0,1,1,.94l1.71,1.87A3.69,3.69,0,0,0,50.9,38.58ZM47,38.13c-.71.79-.87,1.4-.49,1.82a.53.53,0,0,0,.85,0,1,1,0,0,0,.34-.64c0-.24-.13-.56-.5-1Z"/><path class="cls-1" d="M51,30.29l1,1.25-1,.81,1.49,1.8c.2.25.37.36.5.33a.88.88,0,0,0,.35-.17,3.24,3.24,0,0,0,.48-.53L55,35.15a8.35,8.35,0,0,1-1,1,2.41,2.41,0,0,1-1.61.68A2,2,0,0,1,50.94,36l-.47-.57L49.2,33.87l-.73.6-1-1.25.73-.6L46.89,31l1.81-1.53L50,31.1Z"/><path class="cls-1" d="M52.58,26l1.19,1.57-2,1.5L50.6,27.54ZM54.05,28l3.84,5-2,1.51-3.84-5.05Z"/><path class="cls-1" d="M61.85,30.35a3.3,3.3,0,0,1-2.62.61,3.25,3.25,0,0,1-2.07-1.38,3.14,3.14,0,0,1-.54-2.5,3.48,3.48,0,0,1,1.54-2.21,3.42,3.42,0,0,1,2.61-.65,3.38,3.38,0,0,1,2.65,3.9A3.47,3.47,0,0,1,61.85,30.35ZM61,29.08a.66.66,0,0,0,.24-.89,6,6,0,0,0-.6-1.11,3.38,3.38,0,0,0-.88-1,.71.71,0,0,0-1,.73,3.14,3.14,0,0,0,.58,1.22,3.25,3.25,0,0,0,1,1.07A.66.66,0,0,0,61,29.08Z"/><path class="cls-1" d="M71.09,24.41,69,25.68l-2-3.43c-.16-.28-.32-.44-.45-.46a.53.53,0,0,0-.4.08c-.39.23-.42.61-.1,1.16l2,3.27-2.14,1.27-3.24-5.45,2-1.18.46.78a1.86,1.86,0,0,1,1-1.82,2.35,2.35,0,0,1,1.15-.37,1.58,1.58,0,0,1,.93.24A3.67,3.67,0,0,1,69,20.92Z"/><path class="cls-1" d="M78.21,20.71,76.1,21.79a3.45,3.45,0,0,1-.48-.75,2.28,2.28,0,0,1-1.36,1.84,2.23,2.23,0,0,1-1.75.25,1.84,1.84,0,0,1-1.1-.92,1.88,1.88,0,0,1,.08-1.86A6.69,6.69,0,0,1,74,18.21L74,18.08c-.13-.24-.27-.38-.43-.4a.88.88,0,0,0-.55.13c-.51.26-.7.61-.54,1.05l-2.12.85c-.32-1.33.37-2.42,2-3.28a6.69,6.69,0,0,1,1.33-.51,2.38,2.38,0,0,1,1.12,0,1.65,1.65,0,0,1,.76.38,5,5,0,0,1,.74,1.18l1.15,2.25A3.43,3.43,0,0,0,78.21,20.71Zm-3.65-1.46c-.89.58-1.21,1.12-1,1.62.17.34.44.42.82.23a1,1,0,0,0,.49-.52,1.38,1.38,0,0,0-.22-1.06Z"/><path class="cls-1" d="M78.22,11.39l3.5,7.76-2.24,1L76,12.4Z"/><path class="cls-1" d="M91.85,13,92.54,15l-6,2.17-2.89-8,6-2.18.67,1.85-3.61,1.3.42,1.16,2.92-1L90.69,12l-2.92,1,.47,1.31Z"/><path class="cls-1" d="M99.73,12.84l-2.24.65-.23-.81a1.79,1.79,0,0,1-1.37,1.41,2.16,2.16,0,0,1-2-.33,3.86,3.86,0,0,1-1.35-2.2,3.94,3.94,0,0,1,0-2.52,2.18,2.18,0,0,1,1.49-1.37,2,2,0,0,1,1.69.26L95,5.35l2.35-.68ZM96.24,9.61c-.16-.55-.46-.76-.91-.63a.64.64,0,0,0-.47.7A5,5,0,0,0,95.08,11c.29,1,.68,1.41,1.19,1.26a.66.66,0,0,0,.42-.38,1.19,1.19,0,0,0,0-.77Z"/><path class="cls-1" d="M106,4.9l1.38,6.19-2.24.5-.23-1a1.94,1.94,0,0,1-1.67,1.57,1.84,1.84,0,0,1-1.47-.19,1.94,1.94,0,0,1-.8-1.29l-1-4.43,2.43-.54.87,3.9a1,1,0,0,0,.22.49.46.46,0,0,0,.42.06.69.69,0,0,0,.46-.33,1,1,0,0,0,0-.67l-.83-3.71Z"/><path class="cls-1" d="M112.29,7.67l2.12-.16a2.83,2.83,0,0,1-.64,1.94,3,3,0,0,1-1.94,1,3.13,3.13,0,0,1-3.74-2.71,3.32,3.32,0,0,1,.52-2.51,3.38,3.38,0,0,1,4.33-.92A2.77,2.77,0,0,1,114.14,6L112,6.48q-.29-1-.9-.87a.6.6,0,0,0-.52.45,3,3,0,0,0,0,1.28A2.76,2.76,0,0,0,111,8.45a.65.65,0,0,0,.69.27C112.09,8.65,112.31,8.3,112.29,7.67Z"/><path class="cls-1" d="M122.22,9.07l-2.36.24a4.62,4.62,0,0,1-.17-.87,2.27,2.27,0,0,1-1.93,1.21,2.25,2.25,0,0,1-1.73-.4A1.82,1.82,0,0,1,115.34,8a1.91,1.91,0,0,1,.75-1.71,6.77,6.77,0,0,1,3.15-1.07l0-.14a.63.63,0,0,0-.24-.53.91.91,0,0,0-.57-.08c-.57,0-.87.32-.89.78l-2.28,0c.19-1.35,1.23-2.12,3.1-2.31a6.1,6.1,0,0,1,1.42,0,2.37,2.37,0,0,1,1,.37,1.67,1.67,0,0,1,.57.63,4.89,4.89,0,0,1,.27,1.37l.25,2.52A3.62,3.62,0,0,0,122.22,9.07Zm-2.87-2.69c-1,.21-1.53.6-1.48,1.17q.06.57.69.51a1,1,0,0,0,.65-.31,1.36,1.36,0,0,0,.17-1.07Z"/><path class="cls-1" d="M127.23,2.48l.08,1.62L126,4.16l.12,2.33c0,.32.08.51.2.56a.87.87,0,0,0,.38.08,3.15,3.15,0,0,0,.71-.14l.08,1.76a7.17,7.17,0,0,1-1.44.22,2.41,2.41,0,0,1-1.7-.41A2,2,0,0,1,123.77,7l0-.74-.09-2-1,.05-.08-1.61.95,0L123.51.6l2.35-.15.1,2.1Z"/><path class="cls-1" d="M131.07,0l0,2-2.48,0,0-2Zm0,2.44.07,6.34-2.49,0-.07-6.34Z"/><path class="cls-1" d="M135.87,9a3.3,3.3,0,0,1-2.47-1.08,3.25,3.25,0,0,1-.84-2.33,3.17,3.17,0,0,1,1.06-2.33,3.49,3.49,0,0,1,2.56-.86,3.4,3.4,0,0,1,2.47,1,3.16,3.16,0,0,1,.87,2.37,3.21,3.21,0,0,1-1.06,2.34A3.47,3.47,0,0,1,135.87,9ZM136,7.49a.66.66,0,0,0,.73-.57,6.38,6.38,0,0,0,.18-1.25,3.39,3.39,0,0,0-.13-1.29A.65.65,0,0,0,136.1,4a.66.66,0,0,0-.64.38,3.27,3.27,0,0,0-.25,1.33,3.23,3.23,0,0,0,.15,1.45A.67.67,0,0,0,136,7.49Z"/><path class="cls-1" d="M146.87,9.75l-2.48-.26.41-4c0-.32,0-.54-.09-.64a.51.51,0,0,0-.36-.17q-.67-.08-.78.87l-.39,3.79-2.47-.26.65-6.3,2.29.23-.09.9a1.86,1.86,0,0,1,1.93-.84,2.41,2.41,0,0,1,1.13.39,1.52,1.52,0,0,1,.61.75,3.62,3.62,0,0,1,.05,1.47Z"/><path class="cls-1" d="M158.2,11.75l-2.32-.46a3.89,3.89,0,0,1,.08-.88,2.27,2.27,0,0,1-2.19.59,2.24,2.24,0,0,1-1.54-.88,1.83,1.83,0,0,1-.29-1.4,1.88,1.88,0,0,1,1.21-1.42,6.72,6.72,0,0,1,3.32-.1l0-.14a.65.65,0,0,0-.08-.58.87.87,0,0,0-.52-.24c-.56-.12-.92,0-1.08.49l-2.18-.65c.58-1.24,1.79-1.67,3.63-1.31a5.63,5.63,0,0,1,1.35.43,2.26,2.26,0,0,1,.91.66,1.73,1.73,0,0,1,.36.77A4.63,4.63,0,0,1,158.74,8l-.49,2.48A3.6,3.6,0,0,0,158.2,11.75Zm-1.95-3.41c-1.06-.1-1.65.13-1.76.69-.08.37.09.6.51.68a1,1,0,0,0,.71-.1c.21-.12.37-.44.48-1Z"/><path class="cls-1" d="M165.56,13.67l-2.4-.64,1-3.86a.87.87,0,0,0,0-.64.55.55,0,0,0-.34-.23c-.44-.12-.74.13-.9.74l-1,3.68-2.4-.64L161.21,6l2.23.59-.23.87a1.86,1.86,0,0,1,2-.52,2.48,2.48,0,0,1,1.06.55,1.64,1.64,0,0,1,.48.84,3.65,3.65,0,0,1-.18,1.47Z"/><path class="cls-1" d="M173,16.11l-2.21-.74.27-.8a1.78,1.78,0,0,1-1.93.38,2.17,2.17,0,0,1-1.42-1.38,3.91,3.91,0,0,1,.15-2.58,3.91,3.91,0,0,1,1.42-2.08,2.18,2.18,0,0,1,2-.27,2,2,0,0,1,1.24,1.17l.86-2.55L175.7,8Zm-1-4.64c.19-.54,0-.89-.39-1a.66.66,0,0,0-.79.31,4.89,4.89,0,0,0-.56,1.21c-.33,1-.24,1.54.25,1.71a.66.66,0,0,0,.56-.07,1.16,1.16,0,0,0,.44-.63Z"/><path class="cls-1" d="M183.63,13.47l-2.58,5.94-2.27-1,2.58-5.93-1.62-.71.81-1.87,5.51,2.4-.81,1.87Z"/><path class="cls-1" d="M185.32,21.42l-2.14-1.05,2.78-5.7,1.86.91-.57,1.18a1.6,1.6,0,0,1,2.1-.56l.32.18-1,2a2.39,2.39,0,0,0-.39-.26c-.74-.36-1.31-.13-1.72.7Z"/><path class="cls-1" d="M193.44,25.76l-2.07-1.15a4.61,4.61,0,0,1,.35-.81,2.28,2.28,0,0,1-2.27-.1,2.21,2.21,0,0,1-1.19-1.32,1.83,1.83,0,0,1,.15-1.42A1.89,1.89,0,0,1,190,20a6.84,6.84,0,0,1,3.2.92l.07-.12a.7.7,0,0,0,.1-.58,1,1,0,0,0-.42-.39c-.51-.28-.9-.23-1.18.14l-1.88-1.29c.93-1,2.21-1,3.86-.13a6.12,6.12,0,0,1,1.16.82,2.31,2.31,0,0,1,.65.91,1.61,1.61,0,0,1,.11.84,4.93,4.93,0,0,1-.56,1.28l-1.23,2.21A3.5,3.5,0,0,0,193.44,25.76Zm-.82-3.84c-1-.42-1.61-.38-1.88.11a.54.54,0,0,0,.27.81,1,1,0,0,0,.71.12c.24,0,.49-.3.76-.78Z"/><path class="cls-1" d="M200.12,22.46l-3.34,5.39-2.11-1.31L198,21.15Zm1.28-2.07-1,1.67-2.12-1.31,1-1.67Z"/><path class="cls-1" d="M203.25,32.2l-2.05-1.41,2.26-3.29c.19-.27.27-.47.23-.6a.57.57,0,0,0-.23-.34c-.38-.25-.74-.12-1.1.4L200.2,30.1l-2-1.41,3.6-5.23,1.89,1.31-.5.74a1.85,1.85,0,0,1,2.08.19,2.51,2.51,0,0,1,.82.88,1.56,1.56,0,0,1,.17,1,3.76,3.76,0,0,1-.66,1.32Z"/><path class="cls-1" d="M210.34,29.64l-3.84,5-2-1.51,3.85-5.05Zm1.48-1.94-1.19,1.57-2-1.51,1.19-1.56Z"/><path class="cls-1" d="M212.56,39.67l-1.9-1.6,2.57-3a.87.87,0,0,0,.28-.58.51.51,0,0,0-.2-.36c-.35-.29-.72-.19-1.13.29l-2.45,2.92-1.91-1.6,4.08-4.86,1.77,1.49-.58.69a1.84,1.84,0,0,1,2.06.39,2.28,2.28,0,0,1,.73,1,1.61,1.61,0,0,1,.08,1,3.74,3.74,0,0,1-.79,1.26Z"/><path class="cls-1" d="M223.93,39.69l-1.22,1.19-.08-.09c-.16-.16-.27-.28-.34-.34-.28-.27-.5-.37-.66-.32a1.78,1.78,0,0,1-.47,1.52,1.63,1.63,0,0,1-1.56.53,3.9,3.9,0,0,1-1.85-1.09l-.23-.24c-.13-.13-.19-.2-.2-.2-.29-.28-.51-.35-.65-.2s-.07.33.18.59l1.42,1.47a2.18,2.18,0,0,1,.75,1.58,1.94,1.94,0,0,1-.54,1.33,1.77,1.77,0,0,1-1.59.54,5.55,5.55,0,0,1-2.59-1.67c-1.67-1.59-2.13-2.77-1.4-3.54a1.22,1.22,0,0,1,1.5-.24,1.2,1.2,0,0,1,.25-1.13,1.55,1.55,0,0,1,1.85-.18,1.52,1.52,0,0,1,.28-1.76,1.66,1.66,0,0,1,1.61-.5,4.19,4.19,0,0,1,2,1.18,5,5,0,0,1,.78.92,1.49,1.49,0,0,1,2.17,0C223.48,39.19,223.68,39.41,223.93,39.69Zm-8.41,2.62-.19-.19c-.31-.3-.56-.35-.75-.16s-.16.41,0,.68a6.31,6.31,0,0,0,.87,1,2.43,2.43,0,0,0,.81.59.38.38,0,0,0,.41-.11.34.34,0,0,0,.12-.26c0-.1-.09-.24-.26-.42Zm2.95-2.17a.65.65,0,0,0,1.05,0,.74.74,0,1,0-1.08-1A.66.66,0,0,0,218.47,40.14Z"/><polygon class="cls-1" points="191.13 92.32 187.39 114.59 179.02 114.59 182.75 92.32 176.59 92.32 177.71 85.69 198.58 85.69 197.48 92.32 191.13 92.32"/><path class="cls-1" d="M226.4,85.77l-13,28.82h-8.36l-5.61-28.82h8.79l3.19,18.6c.19-.55,1.11-2.74,2.74-6.59l5.16-12Z"/><polygon class="cls-1" points="246.41 107.96 245.29 114.59 224.05 114.59 228.87 85.77 249.58 85.77 248.52 92.08 236.16 92.08 235.41 96.6 245.8 96.6 244.74 102.85 234.38 102.85 233.53 107.96 246.41 107.96"/><polygon class="cls-1" points="265.06 92.32 261.33 114.59 252.96 114.59 256.69 92.32 250.53 92.32 251.65 85.69 272.52 85.69 271.42 92.32 265.06 92.32"/><path class="cls-1" d="M78.79,255.68l-2.63-1.21.22-3.48-.75-.34-1.35,3-2.38-1.09,3.54-7.73,4,1.85a3.36,3.36,0,0,1,1.79,1.57,2.25,2.25,0,0,1,0,2,2.85,2.85,0,0,1-.81,1.06,2.55,2.55,0,0,1-1.52.4ZM76.39,249l1,.46a1.3,1.3,0,0,0,.81.14.67.67,0,0,0,.52-.42c.23-.5,0-.88-.57-1.16l-1.1-.5Z"/><path class="cls-1" d="M84.82,255.54l2.12,1a2.71,2.71,0,0,1-1.54,1.12,3.56,3.56,0,0,1-2.37-.19A3.5,3.5,0,0,1,81,255.67a3,3,0,0,1-.08-2.49,3.54,3.54,0,0,1,6.4-.21,3.41,3.41,0,0,1,0,2.68c0,.08-.08.19-.13.33l-4-1.49a1.61,1.61,0,0,0-.11.9c0,.23.26.41.61.54A.86.86,0,0,0,84.82,255.54Zm.43-1.6a1.16,1.16,0,0,0,.06-.9.91.91,0,0,0-.51-.43c-.55-.2-1,0-1.2.71Z"/><path class="cls-1" d="M89.31,261.56l-2.38-.72,2.43-8,2.19.67-.26.85a1.8,1.8,0,0,1,2-.46,2.09,2.09,0,0,1,1.44,1.36,4.82,4.82,0,0,1-1.42,4.61,2,2,0,0,1-1.92.35A1.81,1.81,0,0,1,90.09,259Zm1.26-4.13a.94.94,0,0,0,0,.68.62.62,0,0,0,.39.37.61.61,0,0,0,.71-.22,3.39,3.39,0,0,0,.53-1.17,3.52,3.52,0,0,0,.23-1.39.62.62,0,0,0-.44-.55.71.71,0,0,0-.49,0,.71.71,0,0,0-.39.5Z"/><path class="cls-1" d="M102.55,256.43l-1.47,6.17-2.24-.53.24-1a1.92,1.92,0,0,1-2.18.68,1.88,1.88,0,0,1-1.25-.81,2,2,0,0,1-.15-1.52l1-4.4,2.42.57-.92,3.88a.92.92,0,0,0,0,.54.44.44,0,0,0,.35.24.65.65,0,0,0,.56-.1,1,1,0,0,0,.34-.58l.88-3.7Z"/><path class="cls-1" d="M104.16,263.19l-1.39-.24,1.48-8.38,2.41.42-.51,2.88a1.75,1.75,0,0,1,1.76-.59,2.12,2.12,0,0,1,1.24.64,2.43,2.43,0,0,1,.6,1.29,4.7,4.7,0,0,1,0,1.63,4.11,4.11,0,0,1-1.1,2.32,2.36,2.36,0,0,1-2.18.57,2.3,2.3,0,0,1-1.83-1.34A3.59,3.59,0,0,0,104.16,263.19Zm1.44-2.14c-.11.61.07,1,.55,1a.65.65,0,0,0,.65-.23,3.28,3.28,0,0,0,.45-1.34,2.75,2.75,0,0,0,0-1.47.71.71,0,0,0-.52-.39.73.73,0,0,0-.53.12.89.89,0,0,0-.32.57Z"/><path class="cls-1" d="M114.07,256.11l-1.1,8.44-2.43-.32,1.1-8.44Z"/><path class="cls-1" d="M117.81,258.68l-.63,6.31-2.47-.25.63-6.31Zm.24-2.42-.19,2-2.48-.25.2-2Z"/><path class="cls-1" d="M122.83,262.84l2.11.31a2.9,2.9,0,0,1-1,1.75,3,3,0,0,1-2.12.57,3.12,3.12,0,0,1-3.06-3.45,3.36,3.36,0,0,1,1-2.34,3.07,3.07,0,0,1,2.4-.8,3,3,0,0,1,2,.83,2.7,2.7,0,0,1,.81,1.86l-2.18.05c0-.67-.28-1-.7-1.05a.63.63,0,0,0-.6.33,2.94,2.94,0,0,0-.26,1.26,2.74,2.74,0,0,0,.11,1.16.67.67,0,0,0,.62.41C122.43,263.76,122.71,263.46,122.83,262.84Z"/><path class="cls-1" d="M132.64,265.73a3.29,3.29,0,0,1-2.52-1,3.18,3.18,0,0,1-1-2.29,3.14,3.14,0,0,1,.94-2.38,3.83,3.83,0,0,1,5-.07,3.16,3.16,0,0,1,1,2.33,3.19,3.19,0,0,1-.94,2.39A3.5,3.5,0,0,1,132.64,265.73Zm0-1.51a.68.68,0,0,0,.7-.61,5.74,5.74,0,0,0,.11-1.26,3.27,3.27,0,0,0-.19-1.28.71.71,0,0,0-1.28,0,3.39,3.39,0,0,0-.19,1.34,3.26,3.26,0,0,0,.23,1.44A.68.68,0,0,0,132.66,264.22Z"/><path class="cls-1" d="M140,260.62l.24,4.72-2.34.12-.24-4.72-1,.05-.08-1.61.95-.05a6.16,6.16,0,0,1,0-1.17,1.61,1.61,0,0,1,.3-.74,1.74,1.74,0,0,1,.71-.56,3.45,3.45,0,0,1,1.23-.25,9.53,9.53,0,0,1,1.61,0l.08,1.62a7.73,7.73,0,0,0-.89,0,1.34,1.34,0,0,0-.53.14q-.24.13-.21.6V259l1.62-.08.08,1.61Z"/><path class="cls-1" d="M154.82,255.38l1,8.45-2.41.29-.71-6-.85,6.22-1.65.2-2.34-5.85.71,6-1.94.23-1-8.45,3.39-.4,1.76,4.34.64-4.63Z"/><path class="cls-1" d="M163.92,262.48l-2.34.39a4.15,4.15,0,0,1-.23-.86,2.29,2.29,0,0,1-1.84,1.34,2.26,2.26,0,0,1-1.76-.29,1.81,1.81,0,0,1-.76-1.2,1.9,1.9,0,0,1,.63-1.76,6.89,6.89,0,0,1,3.07-1.27l0-.14a.66.66,0,0,0-.28-.51,1,1,0,0,0-.58-.05c-.56.1-.84.38-.83.84l-2.27.17c.1-1.36,1.08-2.2,2.94-2.51a6.26,6.26,0,0,1,1.41-.08,2.38,2.38,0,0,1,1.08.3,1.67,1.67,0,0,1,.61.6,4.91,4.91,0,0,1,.35,1.35l.42,2.49A3.4,3.4,0,0,0,163.92,262.48Zm-3-2.5c-1,.28-1.49.71-1.4,1.26.06.38.3.53.72.46a1,1,0,0,0,.63-.34,1.39,1.39,0,0,0,.1-1.08Z"/><path class="cls-1" d="M166.23,253.36l1.56,8.36-2.41.45-1.56-8.36Z"/><path class="cls-1" d="M175.38,259.56l-2.23.68-.25-.8a1.8,1.8,0,0,1-1.34,1.43,2.21,2.21,0,0,1-2-.3,3.93,3.93,0,0,1-1.38-2.18,3.83,3.83,0,0,1-.05-2.52,2.16,2.16,0,0,1,1.47-1.39,1.91,1.91,0,0,1,1.69.23l-.79-2.57,2.35-.72Zm-3.54-3.18c-.16-.55-.47-.75-.92-.61a.63.63,0,0,0-.46.7,5.15,5.15,0,0,0,.24,1.32c.3,1,.71,1.4,1.21,1.24a.62.62,0,0,0,.41-.38,1.08,1.08,0,0,0,0-.77Z"/><path class="cls-1" d="M176.32,249.86l.67,1.85-2.33.85-.68-1.85Zm.83,2.29,2.18,6L177,259l-2.17-6Z"/><path class="cls-1" d="M183.93,249.41l.27,6.75-1.71.71-4.62-5,2.36-1,1.87,2.14c.15.18.3.35.44.53q0-.12,0-.3s0-.1,0-.25l-.22-3Z"/><path class="cls-1" d="M189.9,251.09l2.16-.85a2.71,2.71,0,0,1-.26,1.89A3.65,3.65,0,0,1,190,253.7a3.51,3.51,0,0,1-2.7.26,3.08,3.08,0,0,1-1.85-1.67,3.34,3.34,0,0,1-.17-2.57,3.72,3.72,0,0,1,4.46-2.18,3.39,3.39,0,0,1,1.93,1.87q0,.12.15.33L188,251.55a1.7,1.7,0,0,0,.57.72.89.89,0,0,0,.81-.07A.86.86,0,0,0,189.9,251.09Zm-.86-1.42a1.15,1.15,0,0,0-.6-.67.91.91,0,0,0-.66.07c-.53.25-.64.71-.33,1.36Z"/><path class="cls-1" d="M192.88,250.18l1.61-1.17q.47.53,1.5,0c.56-.3.79-.57.67-.79a.28.28,0,0,0-.28-.13,3.78,3.78,0,0,0-.87.26,4.18,4.18,0,0,1-2.52.41,1.93,1.93,0,0,1-1-.89,1.85,1.85,0,0,1,0-1.77,3.42,3.42,0,0,1,1.58-1.54c1.36-.73,2.48-.71,3.38.07l-1.48,1.2a1.12,1.12,0,0,0-1.24,0,1.3,1.3,0,0,0-.47.38c-.08.13-.11.22-.08.28s.34.2.71,0a12.85,12.85,0,0,1,2-.69,2.09,2.09,0,0,1,1.15.13,1.77,1.77,0,0,1,.89.84,1.91,1.91,0,0,1,0,1.87,4,4,0,0,1-1.82,1.67Q194.34,251.59,192.88,250.18Z"/><path class="cls-1" d="M130.08,207.15s0-1.45.81-.56a1.32,1.32,0,0,0,2.08-.14s1.38-.89,1.06.49c0,0-1.34,3.22-2.58,2.4A3.93,3.93,0,0,1,130.08,207.15Z"/><path class="cls-1" d="M136.37,201.7s.21-.31-.78-.87c0,0-.57-.5.28-.92,0,0,1.06.14.92.77C136.79,200.68,137.35,201.72,136.37,201.7Z"/><path class="cls-1" d="M132,181.53s2.33-1.28,1.21-2.62c0,0-1.21-1.48.35-2.26,0,0,2.69-.57,3,.28a3.52,3.52,0,0,1,1.2,2.26s0,3.11.78,3.25c0,0,3.11,2.9,2,4.6,0,0-.36,3-4.38,2.69,0,0-.71-.36-1.63.7,0,0-1.7,2-3,.5a7.24,7.24,0,0,0-2.12-1.56s-.36.5-.36-1.55a14.79,14.79,0,0,0-.42-3.47s-.35-.63.92-1.2Z"/><path class="cls-1" d="M133,158.62l5.87-2.75a2.4,2.4,0,0,0-.64,1.48s.43,4-.77,4.17c0,0-2.05.43-2.19,1,0,0-.92.92-1.63.14a3.09,3.09,0,0,1-1.77-2.4S132.12,158.55,133,158.62Z"/><path class="cls-1" d="M126.47,147.67s.71-1.06,3.39-.29c0,0,3,1.06,3.54.64,0,0,2,2.12.63,3.75,0,0-4.1,3.53-5.23,3.32a1.9,1.9,0,0,1-2.61-1.06,6.89,6.89,0,0,1-1-4.17S125.69,148,126.47,147.67Z"/><path class="cls-1" d="M124.7,139.11a2.1,2.1,0,0,1,1.49-.28,5.71,5.71,0,0,0,1.84-.07s.77,5.51-.43,6.08c0,0-2.19,2.68-3.75,1.69,0,0,.43-.42-.35-2,0,0-.42-3.19.21-4Z"/><path class="cls-1" d="M135.38,134.73a12.64,12.64,0,0,0-.57,9.62s0,.7.35.91c0,0,.22.57.85-1.48,0,0,1.7-1.56,2.48-1,0,0,1.06.21,1.48-1.56,0,0,1.27-3.46,1.06-4.52,0,0-.78.78-3.18-1.49C137.85,135.22,137.28,134.31,135.38,134.73Z"/><path class="cls-1" d="M135.59,134.66s.57-.64-.5-1.2c0,0,.15-1.42,1.77-.21a.86.86,0,0,1,.21,1.48A1.87,1.87,0,0,0,135.59,134.66Z"/><path class="cls-1" d="M123.71,131.13a3,3,0,0,1,2.55.35s2.26,1.77,2.26,2.76c0,0,.21,2-.85,2.19,0,0-2.26,1.41-3.39.56,0,0-.28-.21-.36-2a1.84,1.84,0,0,0-.7-1.13.84.84,0,0,1,0-.74s.28-.39-.39-.64C122.83,132.5,122.23,131.9,123.71,131.13Z"/><path class="cls-1" d="M135.24,123.56l2.33.21s-.22,6,3.6,4.6c0,0,1.06-1.06,1.91-.57a1.26,1.26,0,0,1,.35,1.91.85.85,0,0,1-.84.78,1,1,0,0,0-1.06.21,4.25,4.25,0,0,1-2.13.21.67.67,0,0,0-.84.36s-1.21,1.2-2.12.28a19.36,19.36,0,0,0-2.57-2.66l-.26-.1c-.57,0-.92-.77-.71-1.63C132.9,127.16,134.39,123.91,135.24,123.56Z"/><path class="cls-1" d="M122.23,109.64s2-1.7,3.6,1.34c0,0,2.2,4.8,1.84,8.9,0,0,.49,8.49-2.68,9.13,0,0-3.33,1.12-4-1.63a42.46,42.46,0,0,1-.29-9.33s.29-2.48.64-3.89c0,0,.21.14-.07-1.27C121.31,112.89,121.31,109.57,122.23,109.64Z"/><path class="cls-1" d="M135.16,115.71l2.12-.07s.92.43.92,1.13c0,0,.29,2-.85,2.76,0,0-2,1.84-2,2.62,0,0-.64,1.34-.71-.29a10.32,10.32,0,0,0-.5-2.33,2.24,2.24,0,0,1,.29-1.27,3.58,3.58,0,0,0,.35-1.91S134.81,115.78,135.16,115.71Z"/><path class="cls-1" d="M136.58,104.26a8.33,8.33,0,0,1,4.66,4.6,1.55,1.55,0,0,1-.77,1.62s-2.9,1.91-2.48,2.69c0,0,.28.92-.21,1.06a1.14,1.14,0,0,1-1.41.36,3.71,3.71,0,0,1-2.34-3.4,9.46,9.46,0,0,1,.71-3.82S136,103.77,136.58,104.26Z"/><path class="cls-1" d="M127.88,107.79s.71-.35.85.64c0,0,.71,1.35-.28,1.28,0,0-1.13.21-1.2-.64A1.45,1.45,0,0,1,127.88,107.79Z"/><path class="cls-1" d="M127.78,105s.36-.18.42.32c0,0,.36.68-.14.64,0,0-.57.11-.6-.32A.7.7,0,0,1,127.78,105Z"/><path class="cls-1" d="M135.24,102.56a1.25,1.25,0,0,1,1.62.5l.42.57s.36.35-1.76.21C135.52,103.84,133.61,103.63,135.24,102.56Z"/><path class="cls-1" d="M124.91,101.08s2.13-.28,2.2.35c0,0,.07.36-.92.57,0,0-1,.14-1.06.56,0,0-.07.43-.78-.35C124.35,102.21,123.78,100.87,124.91,101.08Z"/><path class="cls-1" d="M133.3,90.76s1.23-3.49,3.58-4.53c0,0,1-.75.52.81,0,0-.23.23.66.61,0,0,3.07,2.35,3.07,3.44,0,0,.23,2.4-.76,2.21,0,0-1.46-.14-1.6.34,0,0-.75.8-1.46-.29,0,0-1.56-2.78-3.21-2.35C134.1,91,133.35,91.42,133.3,90.76Z"/><path class="cls-1" d="M125.15,81.29s1.79-2.78,1.84-.28a6.12,6.12,0,0,0,.52,2.49s.89,3.63.32,4.72c0,0-.7,2.21,0,2.82,0,0,1.61,2.12,2.64,2.17,0,0,1.23.09.14,1.51,0,0-4.29,4.76-6.83,3.82,0,0-.33.09-.19-.76A6.65,6.65,0,0,1,125,92.36s.28-.47-.47-.75c0,0-.57-.19-.23-1.79,0,0,.23-.9-1.28-1.7,0,0-.09,0,.1-.75C123.08,87.37,124.49,82,125.15,81.29Z"/><path class="cls-1" d="M127.46,61a1.59,1.59,0,0,0,1.88-.9s1.89-1.7,2.22-.66c0,0,.8,1.65-.14,2.55,0,0-2.55,2.87-2.36,3.77,0,0-.28,2.35.94,3.06a3,3,0,0,1,1,1.46s2.68,3.3,2,4.85c0,0-.9,2.88.9,3.59,0,0,3.53,1.65,2.77,2.87a3.63,3.63,0,0,0-1.27,2.17s-.14,2.73-1.93,1.83c0,0-1.55.29-3.86-5.51a6.23,6.23,0,0,0-1.51-2.92s-.94-.33-1.23-4.24c0,0,.29-.62-1.22-2.12,0,0-1.84-1.32-1.13-2.21,0,0,.66-1,0-1.66,0,0-.7-1.41,1.47-5C126.05,61.92,125.81,60.79,127.46,61Z"/><path class="cls-1" d="M123.55,56.26a2,2,0,0,1,2.31.66,7.9,7.9,0,0,0,1.36,1.18s.1.1,0,.38c0,0-.33,1.7-1.37,1.41,0,0-.57,0-.66-.89a1.93,1.93,0,0,0-1.23-1.37S122.61,57.3,123.55,56.26Z"/><polygon class="cls-1" points="126.24 181.89 126.17 182.09 125.38 181.82 125.45 181.62 126.24 181.89"/><rect class="cls-1" x="127.37" y="182" width="0.22" height="0.84" transform="translate(-86.31 244.25) rotate(-71.18)"/><polygon class="cls-1" points="129.57 183.02 129.5 183.22 128.71 182.96 128.78 182.75 129.57 183.02"/><rect class="cls-1" x="130.7" y="183.13" width="0.22" height="0.84" transform="translate(-85.42 247.17) rotate(-70.92)"/><polygon class="cls-1" points="132.91 184.15 132.84 184.36 132.04 184.09 132.12 183.88 132.91 184.15"/><polygon class="cls-1" points="134.58 184.72 134.51 184.92 133.72 184.65 133.79 184.45 134.58 184.72"/><polygon class="cls-1" points="136.25 185.29 136.18 185.49 135.38 185.22 135.45 185.01 136.25 185.29"/><polygon class="cls-1" points="137.91 185.85 137.84 186.06 137.05 185.78 137.12 185.58 137.91 185.85"/><polygon class="cls-1" points="139.58 186.42 139.51 186.63 138.72 186.35 138.79 186.15 139.58 186.42"/><polygon class="cls-1" points="141.25 186.99 141.18 187.19 140.38 186.92 140.45 186.71 141.25 186.99"/><polygon class="cls-1" points="142.92 187.55 142.84 187.75 142.05 187.49 142.12 187.28 142.92 187.55"/><rect class="cls-1" x="144.04" y="187.67" width="0.22" height="0.84" transform="translate(-80.19 264.42) rotate(-71.33)"/><rect class="cls-1" x="130.5" y="133.81" width="0.22" height="0.58" transform="translate(-5.13 263) rotate(-89.28)"/><rect class="cls-1" x="131.72" y="133.82" width="0.22" height="0.58" transform="translate(-3.93 264.24) rotate(-89.28)"/><polygon class="cls-1" points="133.33 134.02 133.33 134.24 132.75 134.23 132.75 134.01 133.33 134.02"/><polygon class="cls-1" points="134.55 134.04 134.55 134.25 133.97 134.25 133.97 134.03 134.55 134.04"/><rect class="cls-1" x="135.37" y="133.86" width="0.22" height="0.58" transform="translate(-0.38 267.92) rotate(-89.28)"/><polygon class="cls-1" points="136.98 134.06 136.98 134.28 136.4 134.27 136.41 134.06 136.98 134.06"/><polygon class="cls-1" points="138.2 134.08 138.2 134.3 137.62 134.29 137.62 134.07 138.2 134.08"/><rect class="cls-1" x="139.02" y="133.91" width="0.22" height="0.58" transform="translate(3.27 271.7) rotate(-89.31)"/><polygon class="cls-1" points="140.64 134.11 140.64 134.32 140.05 134.31 140.06 134.1 140.64 134.11"/><rect class="cls-1" x="141.46" y="133.94" width="0.22" height="0.58" transform="matrix(0.01, -1, 1, 0.01, 5.76, 274.27)"/><polygon class="cls-1" points="143.07 134.14 143.07 134.35 142.49 134.34 142.49 134.13 143.07 134.14"/><polygon class="cls-1" points="144.29 134.15 144.29 134.37 143.71 134.36 143.71 134.15 144.29 134.15"/><rect class="cls-1" x="117.57" y="117.58" width="0.21" height="0.58" transform="translate(-1.61 234.11) rotate(-89.3)"/><rect class="cls-1" x="118.79" y="117.59" width="0.22" height="0.58" transform="translate(-0.47 235.28) rotate(-89.28)"/><rect class="cls-1" x="120.01" y="117.61" width="0.22" height="0.58" transform="translate(0.71 236.51) rotate(-89.27)"/><rect class="cls-1" x="121.23" y="117.62" width="0.21" height="0.58" transform="translate(1.86 237.7) rotate(-89.26)"/><rect class="cls-1" x="122.44" y="117.63" width="0.22" height="0.58" transform="translate(3.1 238.99) rotate(-89.28)"/><rect class="cls-1" x="123.66" y="117.65" width="0.22" height="0.58" transform="translate(3.44 239.38) rotate(-88.88)"/><polygon class="cls-1" points="125.28 117.85 125.27 118.06 124.69 118.06 124.7 117.84 125.28 117.85"/><rect class="cls-1" x="125.91" y="117.86" width="0.58" height="0.21"/><rect class="cls-1" x="127.31" y="117.69" width="0.21" height="0.58" transform="translate(7.9 243.96) rotate(-89.3)"/><rect class="cls-1" x="128.53" y="117.7" width="0.22" height="0.58" transform="translate(9.02 245.13) rotate(-89.28)"/><polygon class="cls-1" points="130.14 117.91 130.14 118.12 129.56 118.12 129.57 117.9 130.14 117.91"/><polygon class="cls-1" points="131.36 117.92 131.36 118.14 130.78 118.13 130.78 117.91 131.36 117.92"/><rect class="cls-1" x="119.59" y="94.58" width="0.58" height="0.22" transform="translate(-30.4 67.25) rotate(-27.96)"/><rect class="cls-1" x="120.66" y="94.01" width="0.58" height="0.22" transform="translate(-30.28 69.29) rotate(-28.57)"/><polygon class="cls-1" points="122.23 93.32 122.33 93.51 121.82 93.78 121.72 93.59 122.23 93.32"/><rect class="cls-1" x="122.81" y="92.86" width="0.58" height="0.22" transform="translate(-29.26 68.77) rotate(-28.04)"/><polygon class="cls-1" points="124.38 92.17 124.48 92.36 123.97 92.63 123.86 92.44 124.38 92.17"/><polygon class="cls-1" points="125.45 91.6 125.55 91.79 125.04 92.06 124.94 91.87 125.45 91.6"/><polygon class="cls-1" points="126.53 91.02 126.63 91.22 126.11 91.49 126.01 91.3 126.53 91.02"/><polygon class="cls-1" points="127.6 90.45 127.7 90.64 127.19 90.91 127.09 90.72 127.6 90.45"/><polygon class="cls-1" points="128.67 89.88 128.78 90.07 128.26 90.34 128.16 90.15 128.67 89.88"/><polygon class="cls-1" points="129.75 89.31 129.85 89.5 129.34 89.77 129.23 89.58 129.75 89.31"/><rect class="cls-1" x="130.33" y="88.85" width="0.58" height="0.22" transform="translate(-26.7 73.86) rotate(-28.78)"/><polygon class="cls-1" points="131.9 88.16 132 88.35 131.48 88.62 131.38 88.43 131.9 88.16"/><polygon class="cls-1" points="124.68 77.63 124.68 77.85 124.1 77.84 124.1 77.63 124.68 77.63"/><polygon class="cls-1" points="125.9 77.63 125.9 77.85 125.32 77.85 125.32 77.63 125.9 77.63"/><rect class="cls-1" x="126.53" y="77.64" width="0.58" height="0.22"/><polygon class="cls-1" points="128.33 77.64 128.33 77.86 127.75 77.86 127.75 77.64 128.33 77.64"/><polygon class="cls-1" points="129.55 77.65 129.55 77.86 128.97 77.86 128.97 77.64 129.55 77.65"/><polygon class="cls-1" points="130.76 77.65 130.76 77.86 130.19 77.86 130.19 77.65 130.76 77.65"/><polygon class="cls-1" points="131.99 77.65 131.99 77.87 131.4 77.87 131.4 77.65 131.99 77.65"/><polygon class="cls-1" points="133.2 77.66 133.2 77.87 132.62 77.87 132.62 77.65 133.2 77.66"/><rect class="cls-1" x="133.84" y="77.66" width="0.58" height="0.22"/><rect class="cls-1" x="135.06" y="77.66" width="0.58" height="0.22"/><rect class="cls-1" x="136.27" y="77.66" width="0.58" height="0.22"/><polygon class="cls-1" points="138.07 77.67 138.07 77.89 137.49 77.88 137.49 77.67 138.07 77.67"/><rect class="cls-1" x="119.43" y="67.87" width="0.58" height="0.22"/><polygon class="cls-1" points="121.23 67.88 121.23 68.09 120.65 68.09 120.65 67.88 121.23 67.88"/><rect class="cls-1" x="122.05" y="67.7" width="0.22" height="0.58" transform="translate(52.1 188.97) rotate(-89.02)"/><polygon class="cls-1" points="123.67 67.89 123.67 68.1 123.09 68.1 123.09 67.88 123.67 67.89"/><rect class="cls-1" x="124.3" y="67.89" width="0.58" height="0.22"/><polygon class="cls-1" points="126.1 67.89 126.1 68.11 125.52 68.11 125.52 67.89 126.1 67.89"/><rect class="cls-1" x="126.74" y="67.89" width="0.58" height="0.22"/><polygon class="cls-1" points="128.53 67.9 128.53 68.12 127.96 68.11 127.96 67.9 128.53 67.9"/><rect class="cls-1" x="129.35" y="67.72" width="0.22" height="0.58" transform="translate(59.82 196.6) rotate(-89.28)"/><rect class="cls-1" x="130.39" y="67.91" width="0.58" height="0.22"/><polygon class="cls-1" points="132.19 67.91 132.19 68.13 131.61 68.13 131.61 67.91 132.19 67.91"/><rect class="cls-1" x="132.82" y="67.91" width="0.58" height="0.22"/><polygon class="cls-1" points="121.99 61.37 121.99 61.59 121.41 61.58 121.42 61.37 121.99 61.37"/><rect class="cls-1" x="122.63" y="61.37" width="0.58" height="0.22"/><polygon class="cls-1" points="124.43 61.38 124.43 61.59 123.85 61.59 123.85 61.38 124.43 61.38"/><rect class="cls-1" x="125.07" y="61.38" width="0.58" height="0.22"/><polygon class="cls-1" points="126.86 61.38 126.86 61.6 126.28 61.6 126.28 61.38 126.86 61.38"/><rect class="cls-1" x="127.68" y="61.21" width="0.22" height="0.58" transform="translate(65.22 188.77) rotate(-89.52)"/><rect class="cls-1" x="128.9" y="61.21" width="0.22" height="0.58" transform="translate(66.42 189.98) rotate(-89.52)"/><rect class="cls-1" x="129.93" y="61.39" width="0.58" height="0.22"/><polygon class="cls-1" points="131.73 61.4 131.73 61.62 131.15 61.62 131.15 61.4 131.73 61.4"/><rect class="cls-1" x="132.37" y="61.4" width="0.58" height="0.22"/><polygon class="cls-1" points="134.17 61.41 134.17 61.62 133.59 61.62 133.59 61.41 134.17 61.41"/><polygon class="cls-1" points="135.38 61.41 135.38 61.63 134.8 61.63 134.81 61.41 135.38 61.41"/><path class="cls-2" d="M245.84,141.8l.23-11H215v.63a84.23,84.23,0,1,1-84.23-84.46h.6A83.84,83.84,0,0,1,190.5,71.84L204,58.42h0l8.16-8.16-7.81-7.9h0v0l0,0-11.68,4.36q-4-2.9-8.21-5.41l.1,0-.56-12.6v0h0v0l-20.65-8.2h0l0,0-9,8.75c-2-.44-4-.84-6-1.17L143,16.72v0h0v0H120.78v0h0v.05l-5,11.15c-3.23.48-6.41,1.12-9.54,1.89L97,21.26v0h0l0,0v0L76.51,29.91v0h0l0,0L76.23,42.4c-2,1.21-3.85,2.49-5.71,3.82l-.27-.1h0L58.65,41.67h0L42.84,57.32v0l0,0,0,0,4.4,11.73c-1.93,2.62-3.75,5.32-5.43,8.12l-12.55.5h0L21,98.35h0v0H21l8.64,9c-.56,2.44-1.06,4.9-1.45,7.4l-11.37,5.08h-.05v0h0l-.07,22.22h0v0h0l11.42,5.17h0l.16.1a99.86,99.86,0,0,0,2.13,10l-.09-.19-8.42,9.35,0,0v0h0l9,20.33h0l12.61.09h.06c1,1.56,2,3.1,3.14,4.6l-4.45,11.71,0,0,0,0v0h0L58,219.15h0l0,0,11.68-4.43c2.36,1.73,4.78,3.37,7.29,4.89l.43,12.51,0,0h0v0L98,240.59h0v0l9.07-8.62q3.69.88,7.49,1.5l.1.19h0l5.14,11.43v0h0v0l22.22,0v0h0v0l5.14-11.46q4.92-.75,9.68-2l9.15,8.47v0h0l0,0v0l20.46-8.68v0h0l0,0,.27-12.58-.07,0c1.72-1.09,3.4-2.22,5.06-3.4L203.42,220l0,0h0l0,0,15.93-15.49h0v0l0,0,0,0-4.31-11.82,0-.09a102.1,102.1,0,0,0,5.73-8.61l0,.06,12.6-.53h0l8.25-20.63h0v0h0l-8.74-9,0,.09c.54-2.37,1-4.75,1.39-7.17v.11l11.61-4.92h0Z"/></g></g></svg>